<?xml version="1.0" encoding="UTF-8"?>
<svg id="Layer_1" data-name="Layer 1" xmlns="http://www.w3.org/2000/svg" viewBox="0 0 1920 1080">
  <defs>
    <style>
      .cls-1 {
        fill: #ffe800;
      }

      .cls-2 {
        fill: #112c18;
      }
    </style>
  </defs>
  <path class="cls-2" d="M561.78,577.76l-79.77.49v-52.52h139.39v25.61c0,31.35-5.88,57.59-17.63,78.72-11.76,21.14-27.78,37.02-48.07,47.65-20.3,10.64-43.45,15.95-69.49,15.95-32.19,0-59.62-6.23-82.29-18.68-22.67-12.45-39.96-29.95-51.85-52.48-11.9-22.53-17.84-48.77-17.84-78.72s5.94-56.96,17.84-80.19c11.89-23.23,28.9-41.36,51.01-54.37,22.11-13.02,48.42-19.52,78.93-19.52,34.98,0,63.88,8.33,86.7,24.98,22.81,16.66,37.58,39.68,44.3,69.07h-65.5c-4.48-12.6-12.18-22.39-23.09-29.39-10.92-6.99-25.05-10.5-42.41-10.5-18.76,0-34.71,4.06-47.86,12.18-13.16,8.12-23.16,19.67-30.02,34.64-6.86,14.98-10.29,32.82-10.29,53.53s3.57,35.72,10.71,50.27c7.14,14.56,17.56,25.68,31.28,33.38,13.71,7.7,30.65,11.55,50.8,11.55,23.23,0,41.56-6.37,55-19.1,11.15-10.45,18.02-25.57,20.15-42.53Z"/>
  <path class="cls-2" d="M645.32,688.63v-302.29h58.78v302.29h-58.78Z"/>
  <path class="cls-2" d="M840.13,693.67c-20.99,0-39.96-4.62-56.89-13.86-16.94-9.24-30.37-22.11-40.31-38.63-9.94-16.51-14.9-35.41-14.9-56.68s4.97-40.52,14.9-56.89c9.93-16.37,23.44-29.18,40.52-38.42,17.07-9.24,35.96-13.86,56.68-13.86s39.95,4.62,56.89,13.86c16.93,9.24,30.37,22.04,40.31,38.42,9.93,16.37,14.9,35.34,14.9,56.89s-4.97,40.17-14.9,56.68c-9.94,16.52-23.37,29.39-40.31,38.63-16.94,9.24-35.9,13.86-56.89,13.86Z"/>
  <path class="cls-2" d="M1228.9,688.63v-208.25h58.78v31.49c5.6-10.35,12.6-18.54,20.99-24.56,8.4-6.02,17.91-9.03,28.55-9.03h25.61v52.06h-31.49c-10.36,0-18.76,2.66-25.19,7.98-6.44,5.32-11.13,13.23-14.07,23.72-2.94,10.5-4.41,23.3-4.41,38.42v88.17h-58.78Z"/>
  <path class="cls-2" d="M1187.76,527.61c-9.94-16.37-23.37-29.18-40.31-38.42-16.94-9.24-35.9-13.86-56.89-13.86s-38.22,4.3-54.79,12.87v-101.88h-58.78v302.29h58.78v-7.72c16.4,8.49,34.66,12.75,54.79,12.75s39.95-4.62,56.89-13.86c16.93-9.24,30.37-22.11,40.31-38.63,9.93-16.51,14.9-35.41,14.9-56.68s-4.97-40.52-14.9-56.89ZM1138.57,612.49c-4.91,8.16-11.54,14.51-19.9,19.08-8.36,4.56-17.73,6.84-28.09,6.84s-19.73-2.28-28.09-6.84c-8.36-4.56-15-10.92-19.9-19.08-3.57-5.93-5.82-12.48-6.79-19.65v-16.77c.97-7.23,3.23-13.79,6.79-19.67,4.9-8.09,11.57-14.41,20.01-18.97,8.43-4.56,17.76-6.84,27.99-6.84s19.73,2.28,28.09,6.84c8.36,4.56,15,10.89,19.9,18.97,4.9,8.09,7.36,17.45,7.36,28.09s-2.46,19.84-7.36,27.99Z"/>
  <path class="cls-2" d="M1570.88,527.61c-9.94-16.37-23.37-29.18-40.31-38.42-16.94-9.24-35.9-13.86-56.89-13.86s-39.61,4.62-56.68,13.86c-17.08,9.24-30.58,22.04-40.52,38.42-9.94,16.37-14.9,35.34-14.9,56.89s4.97,40.17,14.9,56.68c9.93,16.52,23.37,29.39,40.31,38.63,16.93,9.24,35.9,13.86,56.89,13.86s39.95-4.62,56.89-13.86c16.93-9.24,30.37-22.11,40.31-38.63,9.93-16.51,14.9-35.41,14.9-56.68s-4.97-40.52-14.9-56.89ZM1521.68,612.49c-4.91,8.16-11.54,14.51-19.9,19.08-8.36,4.56-17.73,6.84-28.09,6.84s-19.73-2.28-28.09-6.84c-8.36-4.56-15-10.92-19.9-19.08-4.91-8.15-7.36-17.48-7.36-27.99s2.45-20.01,7.36-28.09c4.9-8.09,11.58-14.41,20.01-18.97,8.43-4.56,17.76-6.84,27.99-6.84s19.73,2.28,28.09,6.84c8.36,4.56,15,10.89,19.9,18.97,4.9,8.09,7.36,17.45,7.36,28.09s-2.46,19.84-7.36,27.99Z"/>
  <path class="cls-1" d="M871.5,582.33l-27.47-29.52,16.02-32.78c1.75-6.19-5.87-10.65-10.41-6.11l-40.42,40.41c-8.93,8.93-8.93,23.41,0,32.35l29.77,29.77-14.79,32.52c-1.63,6.18,5.46,10.65,9.69,6.11l37.6-40.41c8.31-8.93,8.31-23.41,0-32.35Z"/>
</svg>